<svg width="200" height="200" xmlns="http://www.w3.org/2000/svg" viewBox="0 0 200 200"><polygon points="190.97,5.26 193.36,7.64 190.97,10.02 188.59,7.64" fill="#DAA520" fill-opacity="0.24" /><polygon points="108.41,82.07 110.68,84.34 108.41,86.61 106.14,84.34" fill="#DAA520" fill-opacity="0.12" /><polygon points="12.15,127.13 14.13,129.11 12.15,131.09 10.17,129.11" fill="#DAA520" fill-opacity="0.11" /><polygon points="93.69,139.61 95.48,141.40 93.69,143.18 91.90,141.40" fill="#DAA520" fill-opacity="0.23" /><polygon points="162.17,169.53 165.11,172.48 162.17,175.42 159.23,172.48" fill="#DAA520" fill-opacity="0.21" /><polygon points="192.87,32.28 194.06,33.47 192.87,34.66 191.68,33.47" fill="#DAA520" fill-opacity="0.10" /><polygon points="122.28,133.78 125.20,136.70 122.28,139.62 119.35,136.70" fill="#DAA520" fill-opacity="0.16" /><polygon points="66.48,143.74 69.23,146.49 66.48,149.24 63.73,146.49" fill="#DAA520" fill-opacity="0.10" /><polygon points="164.96,115.82 166.69,117.55 164.96,119.28 163.24,117.55" fill="#DAA520" fill-opacity="0.17" /><polygon points="163.86,33.65 166.82,36.62 163.86,39.58 160.90,36.62" fill="#DAA520" fill-opacity="0.27" /><polygon points="26.31,176.24 27.63,177.56 26.31,178.89 24.98,177.56" fill="#DAA520" fill-opacity="0.18" /><polygon points="173.35,22.02 174.79,23.45 173.35,24.89 171.91,23.45" fill="#DAA520" fill-opacity="0.16" /><polygon points="42.45,125.16 44.58,127.29 42.45,129.41 40.33,127.29" fill="#DAA520" fill-opacity="0.30" /><polygon points="81.42,74.73 83.53,76.85 81.42,78.96 79.30,76.85" fill="#DAA520" fill-opacity="0.19" /><polygon points="70.68,57.34 72.01,58.67 70.68,60.00 69.34,58.67" fill="#DAA520" fill-opacity="0.23" /><polygon points="20.14,101.71 22.27,103.84 20.14,105.98 18.00,103.84" fill="#DAA520" fill-opacity="0.14" /><polygon points="165.22,66.84 166.72,68.34 165.22,69.84 163.72,68.34" fill="#DAA520" fill-opacity="0.18" /><polygon points="163.30,73.58 166.13,76.42 163.30,79.25 160.46,76.42" fill="#DAA520" fill-opacity="0.13" /><polygon points="81.99,169.02 83.45,170.47 81.99,171.93 80.53,170.47" fill="#DAA520" fill-opacity="0.12" /><polygon points="144.36,104.23 146.45,106.32 144.36,108.41 142.27,106.32" fill="#DAA520" fill-opacity="0.29" /><polygon points="81.94,117.97 83.03,119.05 81.94,120.14 80.86,119.05" fill="#DAA520" fill-opacity="0.21" /><polygon points="18.34,109.56 19.73,110.95 18.34,112.34 16.95,110.95" fill="#DAA520" fill-opacity="0.22" /><polygon points="116.65,40.83 119.13,43.31 116.65,45.78 114.18,43.31" fill="#DAA520" fill-opacity="0.14" /><polygon points="130.62,60.94 133.03,63.36 130.62,65.78 128.20,63.36" fill="#DAA520" fill-opacity="0.15" /><polygon points="26.41,31.17 27.57,32.33 26.41,33.50 25.24,32.33" fill="#DAA520" fill-opacity="0.18" /><polygon points="18.49,61.17 20.04,62.72 18.49,64.26 16.95,62.72" fill="#DAA520" fill-opacity="0.10" /><polygon points="187.77,102.24 189.86,104.33 187.77,106.42 185.67,104.33" fill="#DAA520" fill-opacity="0.29" /><polygon points="145.20,58.40 146.81,60.01 145.20,61.62 143.59,60.01" fill="#DAA520" fill-opacity="0.12" /><polygon points="83.69,2.94 84.78,4.03 83.69,5.13 82.60,4.03" fill="#DAA520" fill-opacity="0.12" /><polygon points="7.84,96.83 10.11,99.10 7.84,101.37 5.57,99.10" fill="#DAA520" fill-opacity="0.13" /><polygon points="148.99,158.13 150.68,159.81 148.99,161.50 147.31,159.81" fill="#DAA520" fill-opacity="0.13" /><polygon points="77.69,38.40 79.64,40.34 77.69,42.29 75.75,40.34" fill="#DAA520" fill-opacity="0.16" /><polygon points="150.99,92.87 153.23,95.11 150.99,97.34 148.76,95.11" fill="#DAA520" fill-opacity="0.16" /><polygon points="148.21,178.88 149.70,180.36 148.21,181.85 146.73,180.36" fill="#DAA520" fill-opacity="0.20" /><polygon points="172.70,62.67 173.77,63.73 172.70,64.80 171.63,63.73" fill="#DAA520" fill-opacity="0.11" /><polygon points="197.55,130.05 199.79,132.29 197.55,134.53 195.31,132.29" fill="#DAA520" fill-opacity="0.14" /><polygon points="161.39,161.46 164.22,164.28 161.39,167.11 158.57,164.28" fill="#DAA520" fill-opacity="0.28" /><polygon points="11.88,125.51 12.89,126.53 11.88,127.54 10.86,126.53" fill="#DAA520" fill-opacity="0.18" /><polygon points="76.00,88.00 77.20,89.20 76.00,90.41 74.79,89.20" fill="#DAA520" fill-opacity="0.17" /><polygon points="193.57,3.35 196.31,6.09 193.57,8.84 190.82,6.09" fill="#DAA520" fill-opacity="0.29" /><polygon points="17.93,179.56 20.63,182.27 17.93,184.97 15.23,182.27" fill="#DAA520" fill-opacity="0.28" /><polygon points="142.82,53.43 145.48,56.09 142.82,58.76 140.15,56.09" fill="#DAA520" fill-opacity="0.11" /><polygon points="94.54,175.30 96.15,176.91 94.54,178.51 92.94,176.91" fill="#DAA520" fill-opacity="0.29" /><polygon points="123.84,162.51 125.89,164.55 123.84,166.60 121.80,164.55" fill="#DAA520" fill-opacity="0.25" /><polygon points="87.10,194.88 89.76,197.55 87.10,200.21 84.43,197.55" fill="#DAA520" fill-opacity="0.22" /><polygon points="143.36,139.75 146.28,142.67 143.36,145.59 140.44,142.67" fill="#DAA520" fill-opacity="0.23" /><polygon points="24.09,12.53 26.92,15.36 24.09,18.20 21.26,15.36" fill="#DAA520" fill-opacity="0.15" /><polygon points="115.28,44.39 116.94,46.05 115.28,47.70 113.63,46.05" fill="#DAA520" fill-opacity="0.24" /><polygon points="108.23,15.32 110.61,17.70 108.23,20.08 105.85,17.70" fill="#DAA520" fill-opacity="0.22" /><polygon points="53.02,173.13 55.70,175.80 53.02,178.48 50.35,175.80" fill="#DAA520" fill-opacity="0.24" /><polygon points="148.91,88.72 150.46,90.27 148.91,91.82 147.36,90.27" fill="#DAA520" fill-opacity="0.29" /><polygon points="2.45,39.80 4.65,42.00 2.45,44.19 0.25,42.00" fill="#DAA520" fill-opacity="0.27" /><polygon points="131.22,6.15 132.51,7.43 131.22,8.72 129.94,7.43" fill="#DAA520" fill-opacity="0.22" /><polygon points="117.54,155.29 118.90,156.65 117.54,158.01 116.18,156.65" fill="#DAA520" fill-opacity="0.29" /><polygon points="114.90,93.54 117.00,95.64 114.90,97.74 112.80,95.64" fill="#DAA520" fill-opacity="0.24" /><polygon points="66.75,137.31 69.51,140.06 66.75,142.82 64.00,140.06" fill="#DAA520" fill-opacity="0.12" /><polygon points="50.47,2.25 52.45,4.23 50.47,6.20 48.49,4.23" fill="#DAA520" fill-opacity="0.23" /><polygon points="22.64,130.23 25.00,132.59 22.64,134.95 20.27,132.59" fill="#DAA520" fill-opacity="0.13" /><polygon points="66.32,68.76 68.94,71.38 66.32,74.00 63.69,71.38" fill="#DAA520" fill-opacity="0.11" /><polygon points="17.40,103.02 19.39,105.00 17.40,106.99 15.42,105.00" fill="#DAA520" fill-opacity="0.27" /><polygon points="176.17,178.50 178.29,180.62 176.17,182.74 174.05,180.62" fill="#DAA520" fill-opacity="0.26" /><polygon points="18.00,48.57 19.01,49.58 18.00,50.59 16.99,49.58" fill="#DAA520" fill-opacity="0.17" /><polygon points="15.36,170.47 17.26,172.37 15.36,174.26 13.46,172.37" fill="#DAA520" fill-opacity="0.21" /><polygon points="127.80,74.56 129.52,76.27 127.80,77.98 126.09,76.27" fill="#DAA520" fill-opacity="0.29" /><polygon points="197.72,150.14 199.28,151.70 197.72,153.27 196.15,151.70" fill="#DAA520" fill-opacity="0.11" /><polygon points="132.56,11.80 134.37,13.61 132.56,15.42 130.75,13.61" fill="#DAA520" fill-opacity="0.17" /><polygon points="92.01,115.29 94.06,117.34 92.01,119.38 89.97,117.34" fill="#DAA520" fill-opacity="0.22" /><polygon points="179.00,30.68 180.76,32.44 179.00,34.20 177.24,32.44" fill="#DAA520" fill-opacity="0.20" /><polygon points="98.01,181.41 100.87,184.28 98.01,187.14 95.14,184.28" fill="#DAA520" fill-opacity="0.28" /><polygon points="139.49,121.77 141.25,123.53 139.49,125.29 137.73,123.53" fill="#DAA520" fill-opacity="0.16" /><polygon points="10.17,186.45 11.20,187.48 10.17,188.51 9.14,187.48" fill="#DAA520" fill-opacity="0.28" /><polygon points="112.50,149.00 114.21,150.72 112.50,152.43 110.78,150.72" fill="#DAA520" fill-opacity="0.12" /><polygon points="84.03,122.26 85.32,123.55 84.03,124.84 82.75,123.55" fill="#DAA520" fill-opacity="0.18" /><polygon points="195.68,119.14 197.26,120.72 195.68,122.31 194.09,120.72" fill="#DAA520" fill-opacity="0.26" /><polygon points="121.66,128.37 123.62,130.33 121.66,132.29 119.70,130.33" fill="#DAA520" fill-opacity="0.10" /><polygon points="154.27,0.03 155.33,1.09 154.27,2.15 153.21,1.09" fill="#DAA520" fill-opacity="0.15" /><polygon points="121.70,36.70 124.31,39.30 121.70,41.91 119.09,39.30" fill="#DAA520" fill-opacity="0.16" /><polygon points="21.71,175.43 23.46,177.17 21.71,178.92 19.96,177.17" fill="#DAA520" fill-opacity="0.30" /><polygon points="29.97,120.91 32.53,123.46 29.97,126.01 27.42,123.46" fill="#DAA520" fill-opacity="0.12" /><polygon points="79.05,68.55 81.43,70.93 79.05,73.31 76.67,70.93" fill="#DAA520" fill-opacity="0.24" /><polygon points="111.21,63.11 113.98,65.88 111.21,68.65 108.43,65.88" fill="#DAA520" fill-opacity="0.19" /><polygon points="91.35,28.20 93.16,30.01 91.35,31.82 89.54,30.01" fill="#DAA520" fill-opacity="0.30" /><polygon points="34.37,68.45 35.60,69.68 34.37,70.92 33.13,69.68" fill="#DAA520" fill-opacity="0.12" /><polygon points="118.85,51.61 120.62,53.37 118.85,55.14 117.09,53.37" fill="#DAA520" fill-opacity="0.13" /><polygon points="21.43,103.21 23.26,105.04 21.43,106.87 19.60,105.04" fill="#DAA520" fill-opacity="0.17" /><polygon points="120.16,121.06 122.95,123.85 120.16,126.64 117.37,123.85" fill="#DAA520" fill-opacity="0.28" /><polygon points="61.67,147.31 63.68,149.32 61.67,151.32 59.67,149.32" fill="#DAA520" fill-opacity="0.30" /><polygon points="168.19,152.11 169.91,153.84 168.19,155.57 166.46,153.84" fill="#DAA520" fill-opacity="0.27" /><polygon points="121.97,141.76 123.35,143.14 121.97,144.53 120.58,143.14" fill="#DAA520" fill-opacity="0.11" /><polygon points="149.54,45.60 151.08,47.13 149.54,48.67 148.00,47.13" fill="#DAA520" fill-opacity="0.18" /><polygon points="157.25,49.11 159.67,51.53 157.25,53.94 154.83,51.53" fill="#DAA520" fill-opacity="0.10" /><polygon points="13.60,148.96 16.43,151.78 13.60,154.61 10.78,151.78" fill="#DAA520" fill-opacity="0.25" /><polygon points="23.49,104.60 24.51,105.63 23.49,106.65 22.46,105.63" fill="#DAA520" fill-opacity="0.28" /><polygon points="147.74,56.68 148.79,57.74 147.74,58.79 146.68,57.74" fill="#DAA520" fill-opacity="0.14" /><polygon points="62.21,30.41 63.94,32.14 62.21,33.87 60.48,32.14" fill="#DAA520" fill-opacity="0.21" /><polygon points="120.65,54.22 122.52,56.09 120.65,57.95 118.78,56.09" fill="#DAA520" fill-opacity="0.13" /><polygon points="121.00,147.28 123.46,149.74 121.00,152.20 118.54,149.74" fill="#DAA520" fill-opacity="0.17" /><polygon points="42.06,81.01 43.49,82.44 42.06,83.86 40.63,82.44" fill="#DAA520" fill-opacity="0.23" /><polygon points="127.79,41.34 129.10,42.65 127.79,43.97 126.47,42.65" fill="#DAA520" fill-opacity="0.20" /><polygon points="156.01,60.28 157.60,61.87 156.01,63.47 154.41,61.87" fill="#DAA520" fill-opacity="0.25" /><polygon points="186.29,131.33 187.73,132.77 186.29,134.21 184.84,132.77" fill="#DAA520" fill-opacity="0.11" /><polygon points="31.06,179.67 32.13,180.74 31.06,181.81 29.99,180.74" fill="#DAA520" fill-opacity="0.27" /><polygon points="188.12,179.72 190.83,182.43 188.12,185.14 185.41,182.43" fill="#DAA520" fill-opacity="0.17" /><polygon points="86.62,172.77 87.79,173.93 86.62,175.10 85.46,173.93" fill="#DAA520" fill-opacity="0.22" /><polygon points="100.76,73.27 102.49,75.01 100.76,76.74 99.02,75.01" fill="#DAA520" fill-opacity="0.20" /><polygon points="188.33,114.26 191.28,117.22 188.33,120.18 185.37,117.22" fill="#DAA520" fill-opacity="0.23" /><polygon points="174.26,143.76 175.32,144.82 174.26,145.88 173.20,144.82" fill="#DAA520" fill-opacity="0.16" /><polygon points="148.36,161.18 149.78,162.60 148.36,164.02 146.94,162.60" fill="#DAA520" fill-opacity="0.19" /><polygon points="190.31,39.94 191.87,41.50 190.31,43.07 188.74,41.50" fill="#DAA520" fill-opacity="0.26" /><polygon points="86.76,68.71 88.53,70.48 86.76,72.25 85.00,70.48" fill="#DAA520" fill-opacity="0.18" /><polygon points="29.00,191.55 30.08,192.63 29.00,193.72 27.92,192.63" fill="#DAA520" fill-opacity="0.14" /><polygon points="29.97,158.10 32.31,160.43 29.97,162.77 27.63,160.43" fill="#DAA520" fill-opacity="0.14" /><polygon points="8.41,129.60 10.10,131.29 8.41,132.98 6.72,131.29" fill="#DAA520" fill-opacity="0.27" /><polygon points="44.11,120.11 46.22,122.22 44.11,124.33 42.01,122.22" fill="#DAA520" fill-opacity="0.30" /><polygon points="112.64,147.40 114.11,148.88 112.64,150.36 111.16,148.88" fill="#DAA520" fill-opacity="0.21" /><polygon points="176.36,185.34 178.03,187.01 176.36,188.67 174.70,187.01" fill="#DAA520" fill-opacity="0.25" /><polygon points="196.34,44.20 197.73,45.59 196.34,46.98 194.95,45.59" fill="#DAA520" fill-opacity="0.22" /><polygon points="141.85,89.87 144.14,92.16 141.85,94.44 139.56,92.16" fill="#DAA520" fill-opacity="0.12" /><polygon points="136.89,69.07 138.37,70.56 136.89,72.04 135.41,70.56" fill="#DAA520" fill-opacity="0.23" /><polygon points="36.15,19.47 37.40,20.72 36.15,21.97 34.90,20.72" fill="#DAA520" fill-opacity="0.17" /><polygon points="160.49,84.32 162.27,86.10 160.49,87.88 158.71,86.10" fill="#DAA520" fill-opacity="0.11" /><polygon points="9.50,107.54 11.00,109.05 9.50,110.55 7.99,109.05" fill="#DAA520" fill-opacity="0.11" /><polygon points="59.47,60.25 60.51,61.28 59.47,62.32 58.44,61.28" fill="#DAA520" fill-opacity="0.18" /><polygon points="89.48,94.47 90.87,95.86 89.48,97.26 88.08,95.86" fill="#DAA520" fill-opacity="0.20" /><polygon points="195.83,137.04 197.40,138.61 195.83,140.18 194.25,138.61" fill="#DAA520" fill-opacity="0.29" /><polygon points="178.07,95.01 179.47,96.41 178.07,97.81 176.67,96.41" fill="#DAA520" fill-opacity="0.19" /><polygon points="43.51,20.57 44.98,22.04 43.51,23.52 42.04,22.04" fill="#DAA520" fill-opacity="0.17" /><polygon points="98.84,147.35 100.79,149.30 98.84,151.26 96.88,149.30" fill="#DAA520" fill-opacity="0.15" /><polygon points="37.24,104.02 38.37,105.14 37.24,106.27 36.12,105.14" fill="#DAA520" fill-opacity="0.27" /><polygon points="42.61,172.39 45.11,174.89 42.61,177.38 40.12,174.89" fill="#DAA520" fill-opacity="0.24" /><polygon points="97.03,150.20 99.06,152.22 97.03,154.24 95.01,152.22" fill="#DAA520" fill-opacity="0.19" /><polygon points="8.58,132.20 11.38,135.00 8.58,137.79 5.78,135.00" fill="#DAA520" fill-opacity="0.23" /><polygon points="122.99,136.27 124.16,137.44 122.99,138.60 121.83,137.44" fill="#DAA520" fill-opacity="0.26" /><polygon points="67.17,161.46 68.99,163.27 67.17,165.09 65.36,163.27" fill="#DAA520" fill-opacity="0.21" /><polygon points="108.75,110.65 109.88,111.78 108.75,112.91 107.62,111.78" fill="#DAA520" fill-opacity="0.25" /><polygon points="98.66,50.55 100.95,52.85 98.66,55.14 96.36,52.85" fill="#DAA520" fill-opacity="0.21" /><polygon points="34.65,181.91 37.26,184.52 34.65,187.14 32.03,184.52" fill="#DAA520" fill-opacity="0.21" /><polygon points="25.54,126.92 28.19,129.57 25.54,132.21 22.89,129.57" fill="#DAA520" fill-opacity="0.15" /><polygon points="53.04,16.30 55.82,19.07 53.04,21.85 50.27,19.07" fill="#DAA520" fill-opacity="0.24" /><polygon points="124.01,133.63 125.24,134.86 124.01,136.10 122.77,134.86" fill="#DAA520" fill-opacity="0.17" /><polygon points="157.20,47.75 159.90,50.45 157.20,53.14 154.51,50.45" fill="#DAA520" fill-opacity="0.16" /><polygon points="120.93,126.66 122.00,127.73 120.93,128.80 119.86,127.73" fill="#DAA520" fill-opacity="0.24" /><polygon points="44.68,47.05 46.14,48.51 44.68,49.98 43.21,48.51" fill="#DAA520" fill-opacity="0.11" /><polygon points="117.92,149.04 120.66,151.79 117.92,154.53 115.18,151.79" fill="#DAA520" fill-opacity="0.19" /><polygon points="0.44,80.78 2.02,82.36 0.44,83.94 -1.14,82.36" fill="#DAA520" fill-opacity="0.29" /><polygon points="185.64,22.90 187.33,24.59 185.64,26.29 183.94,24.59" fill="#DAA520" fill-opacity="0.18" /><polygon points="35.84,169.47 36.98,170.61 35.84,171.76 34.69,170.61" fill="#DAA520" fill-opacity="0.26" /><polygon points="171.78,123.57 174.48,126.28 171.78,128.98 169.08,126.28" fill="#DAA520" fill-opacity="0.15" /><polygon points="184.05,30.39 186.95,33.30 184.05,36.20 181.15,33.30" fill="#DAA520" fill-opacity="0.27" /><polygon points="154.45,89.45 156.93,91.92 154.45,94.40 151.98,91.92" fill="#DAA520" fill-opacity="0.22" /><polygon points="108.91,99.92 110.37,101.38 108.91,102.83 107.46,101.38" fill="#DAA520" fill-opacity="0.29" /><polygon points="189.34,103.78 191.78,106.22 189.34,108.67 186.89,106.22" fill="#DAA520" fill-opacity="0.13" /><polygon points="164.98,170.07 167.54,172.63 164.98,175.19 162.42,172.63" fill="#DAA520" fill-opacity="0.29" /><polygon points="96.80,46.10 98.16,47.46 96.80,48.82 95.44,47.46" fill="#DAA520" fill-opacity="0.17" /><polygon points="55.43,28.79 57.69,31.05 55.43,33.31 53.17,31.05" fill="#DAA520" fill-opacity="0.22" /><polygon points="153.44,45.02 155.88,47.46 153.44,49.90 150.99,47.46" fill="#DAA520" fill-opacity="0.12" /><polygon points="155.48,100.27 158.16,102.94 155.48,105.62 152.81,102.94" fill="#DAA520" fill-opacity="0.10" /><polygon points="81.87,152.99 83.27,154.39 81.87,155.78 80.47,154.39" fill="#DAA520" fill-opacity="0.14" /><polygon points="90.45,99.14 92.83,101.52 90.45,103.91 88.06,101.52" fill="#DAA520" fill-opacity="0.20" /><polygon points="186.13,50.56 187.15,51.58 186.13,52.60 185.11,51.58" fill="#DAA520" fill-opacity="0.15" /><polygon points="31.55,36.50 34.03,38.97 31.55,41.45 29.08,38.97" fill="#DAA520" fill-opacity="0.20" /><polygon points="63.05,-1.15 66.04,1.84 63.05,4.84 60.06,1.84" fill="#DAA520" fill-opacity="0.11" /><polygon points="0.65,94.30 1.88,95.53 0.65,96.75 -0.57,95.53" fill="#DAA520" fill-opacity="0.19" /><polygon points="168.03,158.10 170.09,160.15 168.03,162.21 165.98,160.15" fill="#DAA520" fill-opacity="0.14" /><polygon points="104.34,142.01 107.33,145.00 104.34,147.98 101.36,145.00" fill="#DAA520" fill-opacity="0.13" /><polygon points="9.64,100.41 10.78,101.55 9.64,102.69 8.49,101.55" fill="#DAA520" fill-opacity="0.14" /><polygon points="182.36,22.95 184.62,25.21 182.36,27.47 180.10,25.21" fill="#DAA520" fill-opacity="0.28" /><polygon points="47.29,58.32 49.17,60.20 47.29,62.07 45.42,60.20" fill="#DAA520" fill-opacity="0.18" /><polygon points="107.05,102.33 108.63,103.91 107.05,105.48 105.48,103.91" fill="#DAA520" fill-opacity="0.22" /><polygon points="22.82,41.58 25.20,43.96 22.82,46.34 20.44,43.96" fill="#DAA520" fill-opacity="0.11" /><polygon points="146.56,39.52 149.16,42.13 146.56,44.73 143.96,42.13" fill="#DAA520" fill-opacity="0.20" /><polygon points="65.46,113.71 67.53,115.78 65.46,117.86 63.39,115.78" fill="#DAA520" fill-opacity="0.19" /><polygon points="0.52,191.21 2.77,193.46 0.52,195.71 -1.73,193.46" fill="#DAA520" fill-opacity="0.24" /><polygon points="146.80,54.75 148.42,56.37 146.80,57.99 145.19,56.37" fill="#DAA520" fill-opacity="0.22" /><polygon points="118.64,88.77 121.16,91.29 118.64,93.80 116.13,91.29" fill="#DAA520" fill-opacity="0.25" /><polygon points="13.87,78.26 15.36,79.76 13.87,81.25 12.38,79.76" fill="#DAA520" fill-opacity="0.21" /><polygon points="3.39,188.56 6.05,191.22 3.39,193.88 0.73,191.22" fill="#DAA520" fill-opacity="0.28" /><polygon points="34.74,185.33 37.10,187.69 34.74,190.05 32.38,187.69" fill="#DAA520" fill-opacity="0.16" /><polygon points="2.71,149.40 5.53,152.22 2.71,155.04 -0.11,152.22" fill="#DAA520" fill-opacity="0.20" /><polygon points="55.89,160.97 58.32,163.39 55.89,165.82 53.47,163.39" fill="#DAA520" fill-opacity="0.17" /><polygon points="7.83,70.43 10.55,73.14 7.83,75.86 5.11,73.14" fill="#DAA520" fill-opacity="0.11" /><polygon points="123.04,37.21 124.20,38.37 123.04,39.53 121.88,38.37" fill="#DAA520" fill-opacity="0.20" /><polygon points="110.65,170.00 112.63,171.98 110.65,173.97 108.67,171.98" fill="#DAA520" fill-opacity="0.19" /><polygon points="186.10,149.42 187.55,150.88 186.10,152.34 184.64,150.88" fill="#DAA520" fill-opacity="0.23" /><polygon points="14.19,187.35 16.50,189.65 14.19,191.96 11.89,189.65" fill="#DAA520" fill-opacity="0.20" /><polygon points="46.76,2.39 47.84,3.47 46.76,4.55 45.68,3.47" fill="#DAA520" fill-opacity="0.15" /><polygon points="87.29,129.20 89.14,131.06 87.29,132.91 85.43,131.06" fill="#DAA520" fill-opacity="0.29" /><polygon points="80.11,136.04 81.96,137.89 80.11,139.73 78.27,137.89" fill="#DAA520" fill-opacity="0.26" /><polygon points="174.00,83.13 176.26,85.39 174.00,87.65 171.74,85.39" fill="#DAA520" fill-opacity="0.19" /><polygon points="142.40,45.03 144.73,47.36 142.40,49.68 140.07,47.36" fill="#DAA520" fill-opacity="0.17" /><polygon points="115.00,119.04 116.29,120.33 115.00,121.62 113.71,120.33" fill="#DAA520" fill-opacity="0.18" /><polygon points="130.42,169.45 132.47,171.49 130.42,173.54 128.38,171.49" fill="#DAA520" fill-opacity="0.12" /><polygon points="154.60,150.47 156.80,152.66 154.60,154.86 152.40,152.66" fill="#DAA520" fill-opacity="0.20" /><polygon points="5.15,29.61 7.54,31.99 5.15,34.38 2.77,31.99" fill="#DAA520" fill-opacity="0.14" /><polygon points="107.38,136.17 108.56,137.35 107.38,138.53 106.20,137.35" fill="#DAA520" fill-opacity="0.24" /><polygon points="78.09,43.98 80.36,46.25 78.09,48.52 75.82,46.25" fill="#DAA520" fill-opacity="0.16" /><polygon points="139.67,70.38 140.78,71.49 139.67,72.61 138.56,71.49" fill="#DAA520" fill-opacity="0.22" /><polygon points="16.07,143.98 18.54,146.45 16.07,148.92 13.60,146.45" fill="#DAA520" fill-opacity="0.25" /><polygon points="75.02,149.06 77.76,151.80 75.02,154.54 72.28,151.80" fill="#DAA520" fill-opacity="0.23" /><polygon points="131.08,34.06 132.44,35.41 131.08,36.77 129.73,35.41" fill="#DAA520" fill-opacity="0.26" /></svg>