<svg width="200" height="200" xmlns="http://www.w3.org/2000/svg" viewBox="0 0 200 200"><line x1="81.45" y1="103.29" x2="82.87" y2="110.16" stroke="#654321" stroke-opacity="0.2" stroke-width="1" /><line x1="81.45" y1="103.29" x2="86.05" y2="121.85" stroke="#654321" stroke-opacity="0.2" stroke-width="1" /><line x1="101.91" y1="6.05" x2="108.07" y2="17.04" stroke="#654321" stroke-opacity="0.2" stroke-width="1" /><line x1="101.91" y1="6.05" x2="102.94" y2="28.15" stroke="#654321" stroke-opacity="0.2" stroke-width="1" /><line x1="47.94" y1="24.66" x2="41.85" y2="23.99" stroke="#654321" stroke-opacity="0.2" stroke-width="1" /><line x1="47.94" y1="24.66" x2="35.26" y2="33.13" stroke="#654321" stroke-opacity="0.2" stroke-width="1" /><line x1="163.25" y1="197.02" x2="159.58" y2="188.16" stroke="#654321" stroke-opacity="0.2" stroke-width="1" /><line x1="163.25" y1="197.02" x2="143.82" y2="196.11" stroke="#654321" stroke-opacity="0.2" stroke-width="1" /><line x1="41.85" y1="23.99" x2="47.94" y2="24.66" stroke="#654321" stroke-opacity="0.2" stroke-width="1" /><line x1="41.85" y1="23.99" x2="35.26" y2="33.13" stroke="#654321" stroke-opacity="0.2" stroke-width="1" /><line x1="177.95" y1="155.54" x2="188.65" y2="142.04" stroke="#654321" stroke-opacity="0.2" stroke-width="1" /><line x1="177.95" y1="155.54" x2="198.38" y2="138.12" stroke="#654321" stroke-opacity="0.2" stroke-width="1" /><line x1="29.78" y1="187.87" x2="37.58" y2="176.86" stroke="#654321" stroke-opacity="0.2" stroke-width="1" /><line x1="29.78" y1="187.87" x2="12.95" y2="158.89" stroke="#654321" stroke-opacity="0.2" stroke-width="1" /><line x1="148.34" y1="165.50" x2="159.58" y2="188.16" stroke="#654321" stroke-opacity="0.2" stroke-width="1" /><line x1="148.34" y1="165.50" x2="133.77" y2="186.67" stroke="#654321" stroke-opacity="0.2" stroke-width="1" /><line x1="19.04" y1="67.96" x2="7.78" y2="58.07" stroke="#654321" stroke-opacity="0.2" stroke-width="1" /><line x1="19.04" y1="67.96" x2="37.81" y2="61.15" stroke="#654321" stroke-opacity="0.2" stroke-width="1" /><line x1="108.52" y1="115.18" x2="118.82" y2="122.51" stroke="#654321" stroke-opacity="0.2" stroke-width="1" /><line x1="108.52" y1="115.18" x2="120.11" y2="121.98" stroke="#654321" stroke-opacity="0.2" stroke-width="1" /><line x1="122.58" y1="88.05" x2="128.50" y2="88.69" stroke="#654321" stroke-opacity="0.2" stroke-width="1" /><line x1="122.58" y1="88.05" x2="120.27" y2="82.25" stroke="#654321" stroke-opacity="0.2" stroke-width="1" /><line x1="61.72" y1="132.90" x2="56.94" y2="134.62" stroke="#654321" stroke-opacity="0.2" stroke-width="1" /><line x1="61.72" y1="132.90" x2="45.47" y2="125.37" stroke="#654321" stroke-opacity="0.2" stroke-width="1" /><line x1="154.59" y1="133.18" x2="131.84" y2="132.99" stroke="#654321" stroke-opacity="0.2" stroke-width="1" /><line x1="154.59" y1="133.18" x2="177.95" y2="155.54" stroke="#654321" stroke-opacity="0.2" stroke-width="1" /><line x1="68.39" y1="160.60" x2="68.67" y2="175.57" stroke="#654321" stroke-opacity="0.2" stroke-width="1" /><line x1="68.39" y1="160.60" x2="88.23" y2="158.19" stroke="#654321" stroke-opacity="0.2" stroke-width="1" /><line x1="85.95" y1="35.66" x2="74.83" y2="24.52" stroke="#654321" stroke-opacity="0.2" stroke-width="1" /><line x1="85.95" y1="35.66" x2="71.49" y2="46.57" stroke="#654321" stroke-opacity="0.2" stroke-width="1" /><line x1="74.83" y1="24.52" x2="70.40" y2="17.57" stroke="#654321" stroke-opacity="0.2" stroke-width="1" /><line x1="74.83" y1="24.52" x2="68.53" y2="11.38" stroke="#654321" stroke-opacity="0.2" stroke-width="1" /><line x1="120.77" y1="190.96" x2="127.83" y2="186.47" stroke="#654321" stroke-opacity="0.2" stroke-width="1" /><line x1="120.77" y1="190.96" x2="133.77" y2="186.67" stroke="#654321" stroke-opacity="0.2" stroke-width="1" /><line x1="88.23" y1="158.19" x2="95.31" y2="174.49" stroke="#654321" stroke-opacity="0.2" stroke-width="1" /><line x1="88.23" y1="158.19" x2="68.39" y2="160.60" stroke="#654321" stroke-opacity="0.2" stroke-width="1" /><line x1="123.64" y1="79.87" x2="120.27" y2="82.25" stroke="#654321" stroke-opacity="0.2" stroke-width="1" /><line x1="123.64" y1="79.87" x2="122.58" y2="88.05" stroke="#654321" stroke-opacity="0.2" stroke-width="1" /><line x1="6.17" y1="132.86" x2="13.53" y2="138.55" stroke="#654321" stroke-opacity="0.2" stroke-width="1" /><line x1="6.17" y1="132.86" x2="2.04" y2="122.15" stroke="#654321" stroke-opacity="0.2" stroke-width="1" /><line x1="128.50" y1="88.69" x2="131.17" y2="88.02" stroke="#654321" stroke-opacity="0.2" stroke-width="1" /><line x1="128.50" y1="88.69" x2="122.58" y2="88.05" stroke="#654321" stroke-opacity="0.2" stroke-width="1" /><line x1="39.93" y1="128.98" x2="45.47" y2="125.37" stroke="#654321" stroke-opacity="0.2" stroke-width="1" /><line x1="39.93" y1="128.98" x2="41.96" y2="119.23" stroke="#654321" stroke-opacity="0.2" stroke-width="1" /><line x1="29.76" y1="142.79" x2="34.48" y2="138.45" stroke="#654321" stroke-opacity="0.2" stroke-width="1" /><line x1="29.76" y1="142.79" x2="38.55" y2="140.50" stroke="#654321" stroke-opacity="0.2" stroke-width="1" /><line x1="188.90" y1="196.37" x2="196.23" y2="182.89" stroke="#654321" stroke-opacity="0.2" stroke-width="1" /><line x1="188.90" y1="196.37" x2="163.25" y2="197.02" stroke="#654321" stroke-opacity="0.2" stroke-width="1" /><line x1="133.77" y1="186.67" x2="127.83" y2="186.47" stroke="#654321" stroke-opacity="0.2" stroke-width="1" /><line x1="133.77" y1="186.67" x2="120.77" y2="190.96" stroke="#654321" stroke-opacity="0.2" stroke-width="1" /><line x1="82.87" y1="110.16" x2="81.45" y2="103.29" stroke="#654321" stroke-opacity="0.2" stroke-width="1" /><line x1="82.87" y1="110.16" x2="86.05" y2="121.85" stroke="#654321" stroke-opacity="0.2" stroke-width="1" /><line x1="54.23" y1="104.77" x2="41.96" y2="119.23" stroke="#654321" stroke-opacity="0.2" stroke-width="1" /><line x1="54.23" y1="104.77" x2="45.47" y2="125.37" stroke="#654321" stroke-opacity="0.2" stroke-width="1" /><line x1="38.55" y1="140.50" x2="34.48" y2="138.45" stroke="#654321" stroke-opacity="0.2" stroke-width="1" /><line x1="38.55" y1="140.50" x2="29.76" y2="142.79" stroke="#654321" stroke-opacity="0.2" stroke-width="1" /><line x1="20.35" y1="103.44" x2="22.82" y2="107.63" stroke="#654321" stroke-opacity="0.2" stroke-width="1" /><line x1="20.35" y1="103.44" x2="28.20" y2="96.28" stroke="#654321" stroke-opacity="0.2" stroke-width="1" /><line x1="15.22" y1="123.43" x2="27.18" y2="124.89" stroke="#654321" stroke-opacity="0.2" stroke-width="1" /><line x1="15.22" y1="123.43" x2="6.17" y2="132.86" stroke="#654321" stroke-opacity="0.2" stroke-width="1" /><line x1="22.82" y1="107.63" x2="20.35" y2="103.44" stroke="#654321" stroke-opacity="0.2" stroke-width="1" /><line x1="22.82" y1="107.63" x2="28.20" y2="96.28" stroke="#654321" stroke-opacity="0.2" stroke-width="1" /><line x1="56.94" y1="134.62" x2="61.72" y2="132.90" stroke="#654321" stroke-opacity="0.2" stroke-width="1" /><line x1="56.94" y1="134.62" x2="45.47" y2="125.37" stroke="#654321" stroke-opacity="0.2" stroke-width="1" /><line x1="196.23" y1="182.89" x2="188.90" y2="196.37" stroke="#654321" stroke-opacity="0.2" stroke-width="1" /><line x1="196.23" y1="182.89" x2="177.95" y2="155.54" stroke="#654321" stroke-opacity="0.2" stroke-width="1" /><line x1="70.40" y1="17.57" x2="68.53" y2="11.38" stroke="#654321" stroke-opacity="0.2" stroke-width="1" /><line x1="70.40" y1="17.57" x2="74.83" y2="24.52" stroke="#654321" stroke-opacity="0.2" stroke-width="1" /><line x1="66.49" y1="59.89" x2="71.49" y2="46.57" stroke="#654321" stroke-opacity="0.2" stroke-width="1" /><line x1="66.49" y1="59.89" x2="80.54" y2="66.07" stroke="#654321" stroke-opacity="0.2" stroke-width="1" /><line x1="188.65" y1="142.04" x2="198.38" y2="138.12" stroke="#654321" stroke-opacity="0.2" stroke-width="1" /><line x1="188.65" y1="142.04" x2="177.95" y2="155.54" stroke="#654321" stroke-opacity="0.2" stroke-width="1" /><line x1="154.77" y1="55.41" x2="170.73" y2="62.32" stroke="#654321" stroke-opacity="0.2" stroke-width="1" /><line x1="154.77" y1="55.41" x2="167.70" y2="76.51" stroke="#654321" stroke-opacity="0.2" stroke-width="1" /><line x1="9.92" y1="44.70" x2="6.16" y2="37.18" stroke="#654321" stroke-opacity="0.2" stroke-width="1" /><line x1="9.92" y1="44.70" x2="3.56" y2="54.62" stroke="#654321" stroke-opacity="0.2" stroke-width="1" /><line x1="143.82" y1="196.11" x2="133.77" y2="186.67" stroke="#654321" stroke-opacity="0.2" stroke-width="1" /><line x1="143.82" y1="196.11" x2="159.58" y2="188.16" stroke="#654321" stroke-opacity="0.2" stroke-width="1" /><line x1="45.47" y1="125.37" x2="39.93" y2="128.98" stroke="#654321" stroke-opacity="0.2" stroke-width="1" /><line x1="45.47" y1="125.37" x2="41.96" y2="119.23" stroke="#654321" stroke-opacity="0.2" stroke-width="1" /><line x1="97.46" y1="54.47" x2="100.92" y2="46.83" stroke="#654321" stroke-opacity="0.2" stroke-width="1" /><line x1="97.46" y1="54.47" x2="80.54" y2="66.07" stroke="#654321" stroke-opacity="0.2" stroke-width="1" /><line x1="50.35" y1="56.96" x2="37.81" y2="61.15" stroke="#654321" stroke-opacity="0.2" stroke-width="1" /><line x1="50.35" y1="56.96" x2="66.49" y2="59.89" stroke="#654321" stroke-opacity="0.2" stroke-width="1" /><line x1="35.43" y1="14.11" x2="25.17" y2="12.30" stroke="#654321" stroke-opacity="0.2" stroke-width="1" /><line x1="35.43" y1="14.11" x2="41.85" y2="23.99" stroke="#654321" stroke-opacity="0.2" stroke-width="1" /><line x1="29.83" y1="38.33" x2="35.26" y2="33.13" stroke="#654321" stroke-opacity="0.2" stroke-width="1" /><line x1="29.83" y1="38.33" x2="25.70" y2="27.20" stroke="#654321" stroke-opacity="0.2" stroke-width="1" /><line x1="167.70" y1="76.51" x2="170.73" y2="62.32" stroke="#654321" stroke-opacity="0.2" stroke-width="1" /><line x1="167.70" y1="76.51" x2="154.77" y2="55.41" stroke="#654321" stroke-opacity="0.2" stroke-width="1" /><line x1="159.58" y1="188.16" x2="163.25" y2="197.02" stroke="#654321" stroke-opacity="0.2" stroke-width="1" /><line x1="159.58" y1="188.16" x2="143.82" y2="196.11" stroke="#654321" stroke-opacity="0.2" stroke-width="1" /><line x1="35.26" y1="33.13" x2="29.83" y2="38.33" stroke="#654321" stroke-opacity="0.2" stroke-width="1" /><line x1="35.26" y1="33.13" x2="25.70" y2="27.20" stroke="#654321" stroke-opacity="0.2" stroke-width="1" /><line x1="170.73" y1="62.32" x2="167.70" y2="76.51" stroke="#654321" stroke-opacity="0.2" stroke-width="1" /><line x1="170.73" y1="62.32" x2="154.77" y2="55.41" stroke="#654321" stroke-opacity="0.2" stroke-width="1" /><line x1="27.18" y1="124.89" x2="25.45" y2="132.42" stroke="#654321" stroke-opacity="0.2" stroke-width="1" /><line x1="27.18" y1="124.89" x2="15.22" y2="123.43" stroke="#654321" stroke-opacity="0.2" stroke-width="1" /><line x1="120.11" y1="121.98" x2="118.82" y2="122.51" stroke="#654321" stroke-opacity="0.2" stroke-width="1" /><line x1="120.11" y1="121.98" x2="108.52" y2="115.18" stroke="#654321" stroke-opacity="0.2" stroke-width="1" /><line x1="122.59" y1="64.67" x2="117.74" y2="59.14" stroke="#654321" stroke-opacity="0.2" stroke-width="1" /><line x1="122.59" y1="64.67" x2="123.64" y2="79.87" stroke="#654321" stroke-opacity="0.2" stroke-width="1" /><line x1="131.17" y1="88.02" x2="128.50" y2="88.69" stroke="#654321" stroke-opacity="0.2" stroke-width="1" /><line x1="131.17" y1="88.02" x2="122.58" y2="88.05" stroke="#654321" stroke-opacity="0.2" stroke-width="1" /><line x1="68.53" y1="11.38" x2="70.40" y2="17.57" stroke="#654321" stroke-opacity="0.2" stroke-width="1" /><line x1="68.53" y1="11.38" x2="74.83" y2="24.52" stroke="#654321" stroke-opacity="0.2" stroke-width="1" /><line x1="95.31" y1="174.49" x2="105.63" y2="187.61" stroke="#654321" stroke-opacity="0.2" stroke-width="1" /><line x1="95.31" y1="174.49" x2="88.23" y2="158.19" stroke="#654321" stroke-opacity="0.2" stroke-width="1" /><line x1="25.45" y1="132.42" x2="27.18" y2="124.89" stroke="#654321" stroke-opacity="0.2" stroke-width="1" /><line x1="25.45" y1="132.42" x2="34.48" y2="138.45" stroke="#654321" stroke-opacity="0.2" stroke-width="1" /><line x1="12.95" y1="158.89" x2="14.60" y2="152.98" stroke="#654321" stroke-opacity="0.2" stroke-width="1" /><line x1="12.95" y1="158.89" x2="13.53" y2="138.55" stroke="#654321" stroke-opacity="0.2" stroke-width="1" /><line x1="68.67" y1="175.57" x2="77.56" y2="182.58" stroke="#654321" stroke-opacity="0.2" stroke-width="1" /><line x1="68.67" y1="175.57" x2="68.39" y2="160.60" stroke="#654321" stroke-opacity="0.2" stroke-width="1" /><line x1="25.70" y1="27.20" x2="20.23" y2="25.44" stroke="#654321" stroke-opacity="0.2" stroke-width="1" /><line x1="25.70" y1="27.20" x2="35.26" y2="33.13" stroke="#654321" stroke-opacity="0.2" stroke-width="1" /><line x1="1.73" y1="100.22" x2="15.75" y2="88.17" stroke="#654321" stroke-opacity="0.2" stroke-width="1" /><line x1="1.73" y1="100.22" x2="20.35" y2="103.44" stroke="#654321" stroke-opacity="0.2" stroke-width="1" /><line x1="100.92" y1="46.83" x2="97.46" y2="54.47" stroke="#654321" stroke-opacity="0.2" stroke-width="1" /><line x1="100.92" y1="46.83" x2="112.28" y2="35.40" stroke="#654321" stroke-opacity="0.2" stroke-width="1" /><line x1="194.86" y1="76.46" x2="167.70" y2="76.51" stroke="#654321" stroke-opacity="0.2" stroke-width="1" /><line x1="194.86" y1="76.46" x2="170.73" y2="62.32" stroke="#654321" stroke-opacity="0.2" stroke-width="1" /><line x1="77.56" y1="182.58" x2="74.43" y2="192.77" stroke="#654321" stroke-opacity="0.2" stroke-width="1" /><line x1="77.56" y1="182.58" x2="68.67" y2="175.57" stroke="#654321" stroke-opacity="0.2" stroke-width="1" /><line x1="117.74" y1="59.14" x2="122.59" y2="64.67" stroke="#654321" stroke-opacity="0.2" stroke-width="1" /><line x1="117.74" y1="59.14" x2="97.46" y2="54.47" stroke="#654321" stroke-opacity="0.2" stroke-width="1" /><line x1="11.89" y1="3.99" x2="25.17" y2="12.30" stroke="#654321" stroke-opacity="0.2" stroke-width="1" /><line x1="11.89" y1="3.99" x2="20.23" y2="25.44" stroke="#654321" stroke-opacity="0.2" stroke-width="1" /><line x1="120.27" y1="82.25" x2="123.64" y2="79.87" stroke="#654321" stroke-opacity="0.2" stroke-width="1" /><line x1="120.27" y1="82.25" x2="122.58" y2="88.05" stroke="#654321" stroke-opacity="0.2" stroke-width="1" /><line x1="102.94" y1="28.15" x2="112.28" y2="35.40" stroke="#654321" stroke-opacity="0.2" stroke-width="1" /><line x1="102.94" y1="28.15" x2="108.07" y2="17.04" stroke="#654321" stroke-opacity="0.2" stroke-width="1" /><line x1="191.56" y1="44.49" x2="182.45" y2="45.63" stroke="#654321" stroke-opacity="0.2" stroke-width="1" /><line x1="191.56" y1="44.49" x2="170.73" y2="62.32" stroke="#654321" stroke-opacity="0.2" stroke-width="1" /><line x1="34.48" y1="138.45" x2="38.55" y2="140.50" stroke="#654321" stroke-opacity="0.2" stroke-width="1" /><line x1="34.48" y1="138.45" x2="29.76" y2="142.79" stroke="#654321" stroke-opacity="0.2" stroke-width="1" /><line x1="7.78" y1="58.07" x2="3.56" y2="54.62" stroke="#654321" stroke-opacity="0.2" stroke-width="1" /><line x1="7.78" y1="58.07" x2="9.92" y2="44.70" stroke="#654321" stroke-opacity="0.2" stroke-width="1" /><line x1="13.53" y1="138.55" x2="6.17" y2="132.86" stroke="#654321" stroke-opacity="0.2" stroke-width="1" /><line x1="13.53" y1="138.55" x2="25.45" y2="132.42" stroke="#654321" stroke-opacity="0.2" stroke-width="1" /><line x1="41.96" y1="119.23" x2="45.47" y2="125.37" stroke="#654321" stroke-opacity="0.2" stroke-width="1" /><line x1="41.96" y1="119.23" x2="39.93" y2="128.98" stroke="#654321" stroke-opacity="0.2" stroke-width="1" /><line x1="182.45" y1="45.63" x2="191.56" y2="44.49" stroke="#654321" stroke-opacity="0.2" stroke-width="1" /><line x1="182.45" y1="45.63" x2="170.73" y2="62.32" stroke="#654321" stroke-opacity="0.2" stroke-width="1" /><line x1="118.47" y1="161.80" x2="121.05" y2="160.36" stroke="#654321" stroke-opacity="0.2" stroke-width="1" /><line x1="118.47" y1="161.80" x2="127.83" y2="186.47" stroke="#654321" stroke-opacity="0.2" stroke-width="1" /><line x1="187.93" y1="117.31" x2="198.38" y2="138.12" stroke="#654321" stroke-opacity="0.2" stroke-width="1" /><line x1="187.93" y1="117.31" x2="188.65" y2="142.04" stroke="#654321" stroke-opacity="0.2" stroke-width="1" /><line x1="25.17" y1="12.30" x2="35.43" y2="14.11" stroke="#654321" stroke-opacity="0.2" stroke-width="1" /><line x1="25.17" y1="12.30" x2="20.23" y2="25.44" stroke="#654321" stroke-opacity="0.2" stroke-width="1" /><line x1="28.20" y1="96.28" x2="20.35" y2="103.44" stroke="#654321" stroke-opacity="0.2" stroke-width="1" /><line x1="28.20" y1="96.28" x2="22.82" y2="107.63" stroke="#654321" stroke-opacity="0.2" stroke-width="1" /><line x1="108.07" y1="17.04" x2="102.94" y2="28.15" stroke="#654321" stroke-opacity="0.2" stroke-width="1" /><line x1="108.07" y1="17.04" x2="101.91" y2="6.05" stroke="#654321" stroke-opacity="0.2" stroke-width="1" /><line x1="37.81" y1="61.15" x2="50.35" y2="56.96" stroke="#654321" stroke-opacity="0.2" stroke-width="1" /><line x1="37.81" y1="61.15" x2="19.04" y2="67.96" stroke="#654321" stroke-opacity="0.2" stroke-width="1" /><line x1="147.58" y1="100.40" x2="131.17" y2="88.02" stroke="#654321" stroke-opacity="0.2" stroke-width="1" /><line x1="147.58" y1="100.40" x2="128.50" y2="88.69" stroke="#654321" stroke-opacity="0.2" stroke-width="1" /><line x1="121.05" y1="160.36" x2="118.47" y2="161.80" stroke="#654321" stroke-opacity="0.2" stroke-width="1" /><line x1="121.05" y1="160.36" x2="127.83" y2="186.47" stroke="#654321" stroke-opacity="0.2" stroke-width="1" /><line x1="150.36" y1="10.56" x2="159.90" y2="20.30" stroke="#654321" stroke-opacity="0.2" stroke-width="1" /><line x1="150.36" y1="10.56" x2="133.28" y2="26.96" stroke="#654321" stroke-opacity="0.2" stroke-width="1" /><line x1="131.84" y1="132.99" x2="120.11" y2="121.98" stroke="#654321" stroke-opacity="0.2" stroke-width="1" /><line x1="131.84" y1="132.99" x2="118.82" y2="122.51" stroke="#654321" stroke-opacity="0.2" stroke-width="1" /><line x1="80.54" y1="66.07" x2="66.49" y2="59.89" stroke="#654321" stroke-opacity="0.2" stroke-width="1" /><line x1="80.54" y1="66.07" x2="97.46" y2="54.47" stroke="#654321" stroke-opacity="0.2" stroke-width="1" /><line x1="6.16" y1="37.18" x2="9.92" y2="44.70" stroke="#654321" stroke-opacity="0.2" stroke-width="1" /><line x1="6.16" y1="37.18" x2="3.56" y2="54.62" stroke="#654321" stroke-opacity="0.2" stroke-width="1" /><line x1="2.04" y1="122.15" x2="6.17" y2="132.86" stroke="#654321" stroke-opacity="0.2" stroke-width="1" /><line x1="2.04" y1="122.15" x2="15.22" y2="123.43" stroke="#654321" stroke-opacity="0.2" stroke-width="1" /><line x1="20.23" y1="25.44" x2="25.70" y2="27.20" stroke="#654321" stroke-opacity="0.2" stroke-width="1" /><line x1="20.23" y1="25.44" x2="25.17" y2="12.30" stroke="#654321" stroke-opacity="0.2" stroke-width="1" /><line x1="105.63" y1="187.61" x2="120.77" y2="190.96" stroke="#654321" stroke-opacity="0.2" stroke-width="1" /><line x1="105.63" y1="187.61" x2="95.31" y2="174.49" stroke="#654321" stroke-opacity="0.2" stroke-width="1" /><line x1="198.38" y1="138.12" x2="188.65" y2="142.04" stroke="#654321" stroke-opacity="0.2" stroke-width="1" /><line x1="198.38" y1="138.12" x2="187.93" y2="117.31" stroke="#654321" stroke-opacity="0.2" stroke-width="1" /><line x1="37.58" y1="176.86" x2="29.78" y2="187.87" stroke="#654321" stroke-opacity="0.2" stroke-width="1" /><line x1="37.58" y1="176.86" x2="12.95" y2="158.89" stroke="#654321" stroke-opacity="0.2" stroke-width="1" /><line x1="74.43" y1="192.77" x2="77.56" y2="182.58" stroke="#654321" stroke-opacity="0.2" stroke-width="1" /><line x1="74.43" y1="192.77" x2="68.67" y2="175.57" stroke="#654321" stroke-opacity="0.2" stroke-width="1" /><line x1="159.90" y1="20.30" x2="150.36" y2="10.56" stroke="#654321" stroke-opacity="0.2" stroke-width="1" /><line x1="159.90" y1="20.30" x2="133.28" y2="26.96" stroke="#654321" stroke-opacity="0.2" stroke-width="1" /><line x1="15.75" y1="88.17" x2="28.20" y2="96.28" stroke="#654321" stroke-opacity="0.2" stroke-width="1" /><line x1="15.75" y1="88.17" x2="20.35" y2="103.44" stroke="#654321" stroke-opacity="0.2" stroke-width="1" /><line x1="118.82" y1="122.51" x2="120.11" y2="121.98" stroke="#654321" stroke-opacity="0.2" stroke-width="1" /><line x1="118.82" y1="122.51" x2="108.52" y2="115.18" stroke="#654321" stroke-opacity="0.2" stroke-width="1" /><line x1="71.49" y1="46.57" x2="66.49" y2="59.89" stroke="#654321" stroke-opacity="0.2" stroke-width="1" /><line x1="71.49" y1="46.57" x2="85.95" y2="35.66" stroke="#654321" stroke-opacity="0.2" stroke-width="1" /><line x1="133.28" y1="26.96" x2="112.28" y2="35.40" stroke="#654321" stroke-opacity="0.2" stroke-width="1" /><line x1="133.28" y1="26.96" x2="150.36" y2="10.56" stroke="#654321" stroke-opacity="0.2" stroke-width="1" /><line x1="3.56" y1="54.62" x2="7.78" y2="58.07" stroke="#654321" stroke-opacity="0.2" stroke-width="1" /><line x1="3.56" y1="54.62" x2="9.92" y2="44.70" stroke="#654321" stroke-opacity="0.2" stroke-width="1" /><line x1="112.28" y1="35.40" x2="102.94" y2="28.15" stroke="#654321" stroke-opacity="0.2" stroke-width="1" /><line x1="112.28" y1="35.40" x2="100.92" y2="46.83" stroke="#654321" stroke-opacity="0.2" stroke-width="1" /><line x1="14.60" y1="152.98" x2="12.95" y2="158.89" stroke="#654321" stroke-opacity="0.2" stroke-width="1" /><line x1="14.60" y1="152.98" x2="13.53" y2="138.55" stroke="#654321" stroke-opacity="0.2" stroke-width="1" /><line x1="86.05" y1="121.85" x2="82.87" y2="110.16" stroke="#654321" stroke-opacity="0.2" stroke-width="1" /><line x1="86.05" y1="121.85" x2="81.45" y2="103.29" stroke="#654321" stroke-opacity="0.2" stroke-width="1" /><line x1="127.83" y1="186.47" x2="133.77" y2="186.67" stroke="#654321" stroke-opacity="0.2" stroke-width="1" /><line x1="127.83" y1="186.47" x2="120.77" y2="190.96" stroke="#654321" stroke-opacity="0.2" stroke-width="1" /><circle cx="81.45" cy="103.29" r="1.5" fill="#654321" fill-opacity="0.3" /><circle cx="101.91" cy="6.05" r="1.5" fill="#654321" fill-opacity="0.3" /><circle cx="47.94" cy="24.66" r="1.5" fill="#654321" fill-opacity="0.3" /><circle cx="163.25" cy="197.02" r="1.5" fill="#654321" fill-opacity="0.3" /><circle cx="41.85" cy="23.99" r="1.5" fill="#654321" fill-opacity="0.3" /><circle cx="177.95" cy="155.54" r="1.5" fill="#654321" fill-opacity="0.3" /><circle cx="29.78" cy="187.87" r="1.5" fill="#654321" fill-opacity="0.3" /><circle cx="148.34" cy="165.50" r="1.5" fill="#654321" fill-opacity="0.3" /><circle cx="19.04" cy="67.96" r="1.5" fill="#654321" fill-opacity="0.3" /><circle cx="108.52" cy="115.18" r="1.5" fill="#654321" fill-opacity="0.3" /><circle cx="122.58" cy="88.05" r="1.5" fill="#654321" fill-opacity="0.3" /><circle cx="61.72" cy="132.90" r="1.5" fill="#654321" fill-opacity="0.3" /><circle cx="154.59" cy="133.18" r="1.5" fill="#654321" fill-opacity="0.3" /><circle cx="68.39" cy="160.60" r="1.5" fill="#654321" fill-opacity="0.3" /><circle cx="85.95" cy="35.66" r="1.5" fill="#654321" fill-opacity="0.3" /><circle cx="74.83" cy="24.52" r="1.5" fill="#654321" fill-opacity="0.3" /><circle cx="120.77" cy="190.96" r="1.5" fill="#654321" fill-opacity="0.3" /><circle cx="88.23" cy="158.19" r="1.5" fill="#654321" fill-opacity="0.3" /><circle cx="123.64" cy="79.87" r="1.5" fill="#654321" fill-opacity="0.3" /><circle cx="6.17" cy="132.86" r="1.5" fill="#654321" fill-opacity="0.3" /><circle cx="128.50" cy="88.69" r="1.5" fill="#654321" fill-opacity="0.3" /><circle cx="39.93" cy="128.98" r="1.5" fill="#654321" fill-opacity="0.3" /><circle cx="29.76" cy="142.79" r="1.5" fill="#654321" fill-opacity="0.3" /><circle cx="188.90" cy="196.37" r="1.5" fill="#654321" fill-opacity="0.3" /><circle cx="133.77" cy="186.67" r="1.5" fill="#654321" fill-opacity="0.3" /><circle cx="82.87" cy="110.16" r="1.5" fill="#654321" fill-opacity="0.3" /><circle cx="54.23" cy="104.77" r="1.5" fill="#654321" fill-opacity="0.3" /><circle cx="38.55" cy="140.50" r="1.5" fill="#654321" fill-opacity="0.3" /><circle cx="20.35" cy="103.44" r="1.5" fill="#654321" fill-opacity="0.3" /><circle cx="15.22" cy="123.43" r="1.5" fill="#654321" fill-opacity="0.3" /><circle cx="22.82" cy="107.63" r="1.5" fill="#654321" fill-opacity="0.3" /><circle cx="56.94" cy="134.62" r="1.5" fill="#654321" fill-opacity="0.3" /><circle cx="196.23" cy="182.89" r="1.5" fill="#654321" fill-opacity="0.3" /><circle cx="70.40" cy="17.57" r="1.5" fill="#654321" fill-opacity="0.3" /><circle cx="66.49" cy="59.89" r="1.5" fill="#654321" fill-opacity="0.3" /><circle cx="188.65" cy="142.04" r="1.5" fill="#654321" fill-opacity="0.3" /><circle cx="154.77" cy="55.41" r="1.5" fill="#654321" fill-opacity="0.3" /><circle cx="9.92" cy="44.70" r="1.5" fill="#654321" fill-opacity="0.3" /><circle cx="143.82" cy="196.11" r="1.5" fill="#654321" fill-opacity="0.3" /><circle cx="45.47" cy="125.37" r="1.5" fill="#654321" fill-opacity="0.3" /><circle cx="97.46" cy="54.47" r="1.5" fill="#654321" fill-opacity="0.3" /><circle cx="50.35" cy="56.96" r="1.5" fill="#654321" fill-opacity="0.3" /><circle cx="35.43" cy="14.11" r="1.5" fill="#654321" fill-opacity="0.3" /><circle cx="29.83" cy="38.33" r="1.5" fill="#654321" fill-opacity="0.3" /><circle cx="167.70" cy="76.51" r="1.5" fill="#654321" fill-opacity="0.3" /><circle cx="159.58" cy="188.16" r="1.5" fill="#654321" fill-opacity="0.3" /><circle cx="35.26" cy="33.13" r="1.5" fill="#654321" fill-opacity="0.3" /><circle cx="170.73" cy="62.32" r="1.5" fill="#654321" fill-opacity="0.3" /><circle cx="27.18" cy="124.89" r="1.5" fill="#654321" fill-opacity="0.3" /><circle cx="120.11" cy="121.98" r="1.5" fill="#654321" fill-opacity="0.3" /><circle cx="122.59" cy="64.67" r="1.5" fill="#654321" fill-opacity="0.3" /><circle cx="131.17" cy="88.02" r="1.5" fill="#654321" fill-opacity="0.3" /><circle cx="68.53" cy="11.38" r="1.5" fill="#654321" fill-opacity="0.3" /><circle cx="95.31" cy="174.49" r="1.5" fill="#654321" fill-opacity="0.3" /><circle cx="25.45" cy="132.42" r="1.5" fill="#654321" fill-opacity="0.3" /><circle cx="12.95" cy="158.89" r="1.5" fill="#654321" fill-opacity="0.3" /><circle cx="68.67" cy="175.57" r="1.5" fill="#654321" fill-opacity="0.3" /><circle cx="25.70" cy="27.20" r="1.5" fill="#654321" fill-opacity="0.3" /><circle cx="1.73" cy="100.22" r="1.5" fill="#654321" fill-opacity="0.3" /><circle cx="100.92" cy="46.83" r="1.5" fill="#654321" fill-opacity="0.3" /><circle cx="194.86" cy="76.46" r="1.5" fill="#654321" fill-opacity="0.3" /><circle cx="77.56" cy="182.58" r="1.5" fill="#654321" fill-opacity="0.3" /><circle cx="117.74" cy="59.14" r="1.5" fill="#654321" fill-opacity="0.3" /><circle cx="11.89" cy="3.99" r="1.5" fill="#654321" fill-opacity="0.3" /><circle cx="120.27" cy="82.25" r="1.5" fill="#654321" fill-opacity="0.3" /><circle cx="102.94" cy="28.15" r="1.5" fill="#654321" fill-opacity="0.3" /><circle cx="191.56" cy="44.49" r="1.5" fill="#654321" fill-opacity="0.3" /><circle cx="34.48" cy="138.45" r="1.5" fill="#654321" fill-opacity="0.3" /><circle cx="7.78" cy="58.07" r="1.5" fill="#654321" fill-opacity="0.3" /><circle cx="13.53" cy="138.55" r="1.5" fill="#654321" fill-opacity="0.3" /><circle cx="41.96" cy="119.23" r="1.5" fill="#654321" fill-opacity="0.3" /><circle cx="182.45" cy="45.63" r="1.5" fill="#654321" fill-opacity="0.3" /><circle cx="118.47" cy="161.80" r="1.5" fill="#654321" fill-opacity="0.3" /><circle cx="187.93" cy="117.31" r="1.5" fill="#654321" fill-opacity="0.3" /><circle cx="25.17" cy="12.30" r="1.5" fill="#654321" fill-opacity="0.3" /><circle cx="28.20" cy="96.28" r="1.5" fill="#654321" fill-opacity="0.3" /><circle cx="108.07" cy="17.04" r="1.5" fill="#654321" fill-opacity="0.3" /><circle cx="37.81" cy="61.15" r="1.5" fill="#654321" fill-opacity="0.3" /><circle cx="147.58" cy="100.40" r="1.5" fill="#654321" fill-opacity="0.3" /><circle cx="121.05" cy="160.36" r="1.5" fill="#654321" fill-opacity="0.3" /><circle cx="150.36" cy="10.56" r="1.5" fill="#654321" fill-opacity="0.3" /><circle cx="131.84" cy="132.99" r="1.5" fill="#654321" fill-opacity="0.3" /><circle cx="80.54" cy="66.07" r="1.5" fill="#654321" fill-opacity="0.3" /><circle cx="6.16" cy="37.18" r="1.5" fill="#654321" fill-opacity="0.3" /><circle cx="2.04" cy="122.15" r="1.5" fill="#654321" fill-opacity="0.3" /><circle cx="20.23" cy="25.44" r="1.5" fill="#654321" fill-opacity="0.3" /><circle cx="105.63" cy="187.61" r="1.5" fill="#654321" fill-opacity="0.3" /><circle cx="198.38" cy="138.12" r="1.5" fill="#654321" fill-opacity="0.3" /><circle cx="37.58" cy="176.86" r="1.5" fill="#654321" fill-opacity="0.3" /><circle cx="74.43" cy="192.77" r="1.5" fill="#654321" fill-opacity="0.3" /><circle cx="159.90" cy="20.30" r="1.5" fill="#654321" fill-opacity="0.3" /><circle cx="15.75" cy="88.17" r="1.5" fill="#654321" fill-opacity="0.3" /><circle cx="118.82" cy="122.51" r="1.5" fill="#654321" fill-opacity="0.3" /><circle cx="71.49" cy="46.57" r="1.5" fill="#654321" fill-opacity="0.3" /><circle cx="133.28" cy="26.96" r="1.5" fill="#654321" fill-opacity="0.3" /><circle cx="3.56" cy="54.62" r="1.5" fill="#654321" fill-opacity="0.3" /><circle cx="112.28" cy="35.40" r="1.5" fill="#654321" fill-opacity="0.3" /><circle cx="14.60" cy="152.98" r="1.5" fill="#654321" fill-opacity="0.3" /><circle cx="86.05" cy="121.85" r="1.5" fill="#654321" fill-opacity="0.3" /><circle cx="127.83" cy="186.47" r="1.5" fill="#654321" fill-opacity="0.3" /></svg>